<svg id="Group_214" data-name="Group 214" xmlns="http://www.w3.org/2000/svg" width="135.047" height="28.715" viewBox="0 0 135.047 28.715">
  <defs>
    <style>
      .cls-1 {
        fill: #333132;
      }
    </style>
  </defs>
  <g id="Group_117" data-name="Group 117" transform="translate(0 0.143)">
    <path id="Path_97" data-name="Path 97" class="cls-1" d="M3.455,2.742H7.147c2.828,0,5.345.619,5.345,4.145s-2.518,4.145-5.345,4.145H3.455ZM-2.5,25.674H3.455V15.758H8.812c6.9,0,9.569-4.378,9.569-8.871S15.709-1.984,8.812-1.984H-2.5Z" transform="translate(2.5 1.984)"/>
  </g>
  <g id="Group_118" data-name="Group 118" transform="translate(20.059 7.231)">
    <path id="Path_98" data-name="Path 98" class="cls-1" d="M3.3,6.244C3.3,2.971,4.464-.3,8.311-.3c3.888,0,5.05,3.271,5.05,6.544,0,3.232-1.162,6.505-5.05,6.505C4.464,12.75,3.3,9.477,3.3,6.244m-5.691,0c0,6.465,4.207,10.722,10.7,10.722,6.534,0,10.741-4.257,10.741-10.722,0-6.5-4.207-10.762-10.741-10.762-6.494,0-10.7,4.259-10.7,10.762" transform="translate(2.389 4.518)"/>
  </g>
  <path id="Path_100" data-name="Path 100" class="cls-1" d="M21.119-125.963h5.5v-27.656h-5.5Z" transform="translate(22.436 153.764)"/>
  <path id="Path_101" data-name="Path 101" class="cls-1" d="M29.776-153.619h-5.5v4.533h5.5Zm-5.5,27.656h5.5v-20.026h-5.5Z" transform="translate(26.799 153.764)"/>
  <g id="Group_120" data-name="Group 120" transform="translate(92.379 7.115)">
    <path id="Path_102" data-name="Path 102" class="cls-1" d="M0,12H5.422V2.569c0-3.523,1.474-6.384,5.5-6.384a7.925,7.925,0,0,0,.85-.026V-8.493s-.091-.2-.965-.191c-2.673.04-3.916.462-5.033,2.844h-.35V-8.024H0Z" transform="translate(0 8.684)"/>
  </g>
  <g id="Group_121" data-name="Group 121" transform="translate(58.031 0)">
    <path id="Path_103" data-name="Path 103" class="cls-1" d="M1.674,16.13h5.5V-.216h3.8V-3.9H7.043V-5.187c0-1.665.91-2.292,3.83-2.292v-4.192l-3.368,0c-3.578,0-6.05,1.567-6.05,6.222V-3.9H-1.211V-.237l2.885.021Z" transform="translate(1.211 11.671)"/>
  </g>
  <g id="Group_122" data-name="Group 122" transform="translate(69.188 7.231)">
    <path id="Path_104" data-name="Path 104" class="cls-1" d="M3.3,6.244C3.3,2.971,4.464-.3,8.314-.3c3.888,0,5.05,3.271,5.05,6.544,0,3.232-1.162,6.505-5.05,6.505C4.464,12.75,3.3,9.477,3.3,6.244m-5.691,0c0,6.465,4.209,10.722,10.7,10.722,6.532,0,10.738-4.257,10.738-10.722,0-6.5-4.207-10.762-10.738-10.762-6.494,0-10.7,4.259-10.7,10.762" transform="translate(2.389 4.518)"/>
  </g>
  <g id="Group_123" data-name="Group 123" transform="translate(105.435 7.231)">
    <path id="Path_105" data-name="Path 105" class="cls-1" d="M0,11.924H5.322V.312c0-3.909,2.549-4.6,3.6-4.6,3.373,0,3.223,2.67,3.223,4.993V11.924h5.322V.776c0-2.515.562-5.069,3.564-5.069,3.035,0,3.259,2.206,3.259,4.876V11.924h5.324V-1.468c0-5.186-2.961-7.16-7.087-7.16A6.994,6.994,0,0,0,16.679-5.3c-1.05-2.4-3.223-3.328-5.66-3.328-2.511,0-4.211.665-5.6,2.716H5.348V-8.085H0Z" transform="translate(0 8.628)"/>
  </g>
</svg>
