<svg xmlns="http://www.w3.org/2000/svg" xmlns:xlink="http://www.w3.org/1999/xlink" width="63.932" height="65" viewBox="0 0 63.932 65">
  <defs>
    <style>
      .cls-1 {
        fill: none;
      }

      .cls-2 {
        fill: #333132;
      }

      .cls-3 {
        clip-path: url(#clip-path);
      }
    </style>
    <clipPath id="clip-path">
      <path id="Path_96" data-name="Path 96" class="cls-1" d="M0,36.18H63.931v-65H0Z" transform="translate(0 28.82)"/>
    </clipPath>
  </defs>
  <g id="Group_217" data-name="Group 217" transform="translate(-240.318 -3482.285)">
    <path id="Exclusion_1" data-name="Exclusion 1" class="cls-2" d="M32.525,65a28.741,28.741,0,0,1-12.918-3.025,26.487,26.487,0,0,1-5.452-3.663A25.77,25.77,0,0,1,9.741,53.32a22.564,22.564,0,0,1-3.894-8.433,70.292,70.292,0,0,1-1.453-9.323c-.266-2.407-.541-4.9-1-7.294L0,0H63.93c-.83,6.523-1.549,13.233-2.244,19.723-.841,7.849-1.71,15.964-2.8,24.029a26.469,26.469,0,0,1-19.4,20.44A30.724,30.724,0,0,1,32.525,65ZM4.7,4.7h0C5.343,9.642,5.933,14.331,6.5,18.864c.984,7.82,1.914,15.206,3.062,23.408A21.621,21.621,0,0,0,14.1,52.026a23.424,23.424,0,0,0,8.513,6.688,25.909,25.909,0,0,0,9.971,1.964,21.208,21.208,0,0,0,11.513-3.1A21.534,21.534,0,0,0,52.047,49.7a23.71,23.71,0,0,0,3.187-10.557L58.19,12.873,59.319,4.7H4.7Z" transform="translate(240.319 3482.285)"/>
    <path id="Path_91" data-name="Path 91" class="cls-1" d="M0,36.18H63.931v-65H0Z" transform="translate(240.318 3511.105)"/>
    <g id="Group_111" data-name="Group 111" transform="translate(263.89 3489.418)">
      <path id="Path_92" data-name="Path 92" class="cls-2" d="M6.391,7.5H.563L-5.091-5.89l4.7-.088,4,10.438L7.521-5.978H11.7Z" transform="translate(5.091 5.978)"/>
    </g>
    <g id="Group_112" data-name="Group 112" transform="translate(250.147 3503.943)">
      <path id="Path_93" data-name="Path 93" class="cls-2" d="M7.6,1.937.47,8.635H7.689v3.827H-6.055V9.069L1.512,1.937H-5.62v-3.48H7.6Z" transform="translate(6.055 1.543)"/>
    </g>
    <g id="Group_115" data-name="Group 115" class="cls-3" transform="translate(240.318 3482.285)">
      <g id="Group_113" data-name="Group 113" transform="translate(24.702 21.659)">
        <path id="Path_94" data-name="Path 94" class="cls-2" d="M2.276,4.939c.088.956,1.044,1.3,1.653,1.739A4.978,4.978,0,0,0,8.1,5.983l.609-.959V-3.934H12.8V6.418c-.7,2.174-3.394,3.739-5.742,4-3.13.174-7.828,0-8.873-4.089V-3.934H2.276Z" transform="translate(1.813 3.934)"/>
      </g>
      <g id="Group_114" data-name="Group 114" transform="translate(40.506 21.273)">
        <path id="Path_95" data-name="Path 95" class="cls-2" d="M7.568,2.1c-6.784.174-9.046.262-9.132,1.653A4.158,4.158,0,0,0-1.043,8.1c1.13,1.306,2.783.435,4.522.7V5.322h4.61s.088,6,0,7.307C-1.652,12.541-3.567,13.5-5.567,8.8-6.262,5.843-6.435,2.277-4.176.015-2.434-2.333,7.568-1.55,7.568-1.55Z" transform="translate(6.029 1.676)"/>
      </g>
    </g>
  </g>
</svg>
