<svg id="Group_216" data-name="Group 216" xmlns="http://www.w3.org/2000/svg" width="80.232" height="47.104" viewBox="0 0 80.232 47.104">
  <defs>
    <style>
      .cls-1 {
        fill: #333132;
      }
    </style>
  </defs>
  <g id="Group_156" data-name="Group 156" transform="translate(0 0)">
    <path id="Path_140" data-name="Path 140" class="cls-1" d="M16.462,3.447H10.728c-9.924,0-17.27,7.132-17.27,17.494,0,9.245,6.691,18.132,16.165,18.118h1.455V24.111h-8.8V18.766H16.5V44.4H10.742c-12.57,0-22.653-10.538-22.653-23.432S-1.8-2.494,10.728-2.494h5.734Z" transform="translate(11.911 2.494)"/>
  </g>
  <g id="Group_157" data-name="Group 157" transform="translate(45.529 0.417)">
    <path id="Path_141" data-name="Path 141" class="cls-1" d="M5.479,3.11C-.2,3.11,1.346,8.484,3.02,11.492,6.92,18.5,13.744,26.78,9.8,35.387,6.7,42.13,1.841,43.707-3.964,44.348V38.974c3.737-.417,6.984-1.444,9.007-5.865C8.606,25.368-2.83,15.882-3.8,8.6-4.91.37,2.146-2.25,5.479-2.25H8.113V3.243Z" transform="translate(3.964 2.25)"/>
  </g>
  <g id="Group_158" data-name="Group 158" transform="translate(58.523 0.387)">
    <path id="Path_142" data-name="Path 142" class="cls-1" d="M5.453,3.187C-.221,3.187,1.32,8.561,3,11.57c3.9,7.027,10.724,15.288,6.779,23.894-3.085,6.7-7.9,8.306-13.664,8.947V39.037C-.192,38.62,3,37.563,5.017,33.17c3.564-7.742-7.873-17.225-8.847-24.5C-4.935.433,2.121-2.187,5.453-2.187l2.635-.119V3.187Z" transform="translate(3.946 2.306)"/>
  </g>
  <path id="Path_144" data-name="Path 144" class="cls-1" d="M45.817,27.012h5.252V-19.662H45.817Z" transform="translate(29.162 19.931)"/>
  <g id="Group_160" data-name="Group 160" transform="translate(30.424 0.388)">
    <path id="Path_145" data-name="Path 145" class="cls-1" d="M.008,0h0L-.006,46.51H13.279V41.119H5.249V14.009H9.67V8.633H5.463V5.4h7.816V0Z" transform="translate(0.006)"/>
  </g>
</svg>
