<svg id="Group_215" data-name="Group 215" xmlns="http://www.w3.org/2000/svg" width="158.45" height="80" viewBox="0 0 158.45 80">
  <defs>
    <style>
      .cls-1 {
        fill: #333132;
      }
    </style>
  </defs>
  <g id="Group_131" data-name="Group 131" transform="translate(53.944 27.13)">
    <path id="Path_113" data-name="Path 113" class="cls-1" d="M.079,0A145.932,145.932,0,0,0,25.227,2.176,145.791,145.791,0,0,0,50.384,0l.125.658A119.591,119.591,0,0,1,25.227,3.348,119.406,119.406,0,0,1-.051.657Z" transform="translate(0.051 0.001)"/>
  </g>
  <g id="Group_132" data-name="Group 132" transform="translate(43.389 30.41)">
    <path id="Path_114" data-name="Path 114" class="cls-1" d="M43.46.4A169.555,169.555,0,0,1,7.627,4.2,169.412,169.412,0,0,1-28.206.4l.132-.653a194.211,194.211,0,0,0,35.7,3.29,194.417,194.417,0,0,0,35.7-3.29Z" transform="translate(28.206 0.257)"/>
  </g>
  <g id="Group_133" data-name="Group 133" transform="translate(64.093 23.976)">
    <path id="Path_115" data-name="Path 115" class="cls-1" d="M18.349.4A79.146,79.146,0,0,1,3.221,1.85,79,79,0,0,1-11.909.4l.107-.656A120.642,120.642,0,0,0,3.221.681a120.388,120.388,0,0,0,15.021-.94Z" transform="translate(11.909 0.259)"/>
  </g>
  <g id="Group_134" data-name="Group 134" transform="translate(72.514 2.019)">
    <path id="Path_116" data-name="Path 116" class="cls-1" d="M0,3.715C0-.063,2.424-2.411,5.412-2.411a5.293,5.293,0,0,1,5.315,5.45H10.4a4.341,4.341,0,0,0-4.35-4.464C3.6-1.425,1.608.46,1.608,3.735V16.6H0Z" transform="translate(0 2.411)"/>
  </g>
  <g id="Group_135" data-name="Group 135" transform="translate(72.276 0)">
    <path id="Path_117" data-name="Path 117" class="cls-1" d="M.153,2.4a6.4,6.4,0,0,1,5.4-2.937c3.534,0,6.4,2.548,6.4,7.124V19.475h1.6V6.481c0-5.082-3.369-8.039-7.274-8.039A7.237,7.237,0,0,0-.1,2.263Z" transform="translate(0.099 1.558)"/>
  </g>
  <g id="Group_137" data-name="Group 137" transform="translate(79.054 72.573)">
    <path id="Path_119" data-name="Path 119" class="cls-1" d="M0,3.163H3.2v2.02H4.352V3.163H5.506V2.432H4.352V-2.053h-.7L0,2.642Zm.587-.732L3.2-.983V2.432Z" transform="translate(0 2.053)"/>
  </g>
  <g id="Group_138" data-name="Group 138" transform="translate(88.148 72.669)">
    <path id="Path_120" data-name="Path 120" class="cls-1" d="M2.008,1.866C2.729,1.581,3.6,1.116,3.6.311,3.6-.7,2.333-1.211,1.38-1.211c-1.217,0-2.523.579-2.523,1.756,0,.943.638,1.364,1.489,1.756C-.515,2.745-1.3,3.22-1.3,4.226-1.3,5.474-.129,6.015.976,6.015c1.563,0,2.879-.671,2.879-2.033,0-1.12-.788-1.672-1.847-2.116M.6,2.4c.932.414,2.17.722,2.17,1.862A1.485,1.485,0,0,1,1.144,5.73,1.4,1.4,0,0,1-.388,4.267,2.077,2.077,0,0,1,.6,2.4m1.187-.622C1.1,1.421-.078,1.127-.078.25c0-.8.645-1.176,1.484-1.176.8,0,1.357.414,1.357,1.187a1.635,1.635,0,0,1-.973,1.522" transform="translate(1.303 1.211)"/>
  </g>
  <g id="Group_139" data-name="Group 139" transform="translate(64.637 72.671)">
    <path id="Path_121" data-name="Path 121" class="cls-1" d="M1.881,4.33V4.119c-.622,0-.788-.064-.788-.521V-2.81H.9A4.148,4.148,0,0,1-1.221-1.723V-1.5c.653.051.966.051,1.07.221a1.377,1.377,0,0,1,.094.656V3.6c0,.457-.252.521-.856.521V4.33Z" transform="translate(1.221 2.81)"/>
  </g>
  <g id="Group_140" data-name="Group 140" transform="translate(71.424 72.446)">
    <path id="Path_122" data-name="Path 122" class="cls-1" d="M2.849.193H.283c-.29,0-.592,0-.894-.02-.244-.01-.325-.033-.325-.3h-.188l-.724,1.989h.257l.107-.292c.084-.234.216-.381.45-.381h3.1L-.215,5.747c-.419.826-.722,1.438-.722,1.479,0,.213.313.2.475.2a.685.685,0,0,0,.75-.5L2.849.477Z" transform="translate(1.849 0.125)"/>
  </g>
  <path id="Path_124" data-name="Path 124" class="cls-1" d="M.632-66.4H69.025v-.661H.632Z" transform="translate(0.974 132.381)"/>
  <path id="Path_125" data-name="Path 125" class="cls-1" d="M30.484-66.4h81v-.661h-81Z" transform="translate(46.97 132.381)"/>
  <g id="Group_142" data-name="Group 142" transform="translate(58.739 51.248)">
    <path id="Path_126" data-name="Path 126" class="cls-1" d="M5.08,3.092c0,2.508-1.044,4.553-3.059,4.553-2.076,0-3.057-2.028-3.057-4.553S.021-1.461,2.021-1.461c2.167,0,3.059,2.02,3.059,4.553m2.261,0c0-3.067-2.157-5.1-5.32-5.1A4.99,4.99,0,0,0-3.3,3.092a5,5,0,0,0,5.318,5.1,5.147,5.147,0,0,0,5.32-5.1" transform="translate(3.297 2.007)"/>
  </g>
  <g id="Group_143" data-name="Group 143" transform="translate(106.152 45.651)">
    <path id="Path_127" data-name="Path 127" class="cls-1" d="M0,9.428c1.88,0,3.814.091,5.765.091a11.4,11.4,0,0,0,4.988-.854,3.768,3.768,0,0,0,2.332-3.481A4.161,4.161,0,0,0,9.053,1.1a3.514,3.514,0,0,0,2.96-3.55,3.315,3.315,0,0,0-1.9-2.965,10.6,10.6,0,0,0-4.688-.7c-1.855.02-3.644.02-5.422.046v.47c.988.158,1.829-.069,1.829,1.077V7.993c0,.92-.988.92-1.829.963ZM4.284-5.484c.226-.008.584,0,.805,0,3.651,0,4.5,1.464,4.5,3.232,0,2.47-1.923,3.379-4.149,3.379H4.284Zm0,7.244H5.32c2.744,0,5.191.234,5.191,3.537,0,2.32-1.367,3.59-4.2,3.59-1.209,0-2.025-.2-2.025-1.372Z" transform="translate(0 6.119)"/>
  </g>
  <g id="Group_144" data-name="Group 144" transform="translate(122.079 51.248)">
    <path id="Path_128" data-name="Path 128" class="cls-1" d="M5.078,3.092c0,2.508-1.044,4.553-3.057,4.553-2.078,0-3.059-2.028-3.059-4.553S.02-1.461,2.022-1.461c2.167,0,3.057,2.02,3.057,4.553m2.259,0c0-3.067-2.155-5.1-5.315-5.1A4.988,4.988,0,0,0-3.3,3.092a4.994,4.994,0,0,0,5.318,5.1,5.144,5.144,0,0,0,5.315-5.1" transform="translate(3.296 2.007)"/>
  </g>
  <g id="Group_145" data-name="Group 145" transform="translate(0 45.702)">
    <path id="Path_129" data-name="Path 129" class="cls-1" d="M0,.285A2.359,2.359,0,0,1,1.565.867a8.442,8.442,0,0,1,1.27,2.5L7.861,15.626h.821L13.476,3.182c.564-1.461,1.138-2.9,2.8-2.9v-.47H11.05v.47c.554,0,1.319-.048,1.725.7.221.407.163,1.258-.427,2.851l-3.14,8.489H9.157L5.275,2.577a3.262,3.262,0,0,1-.231-1.39c.155-.7,1.011-.9,1.837-.9v-.47H0Z" transform="translate(0 0.185)"/>
  </g>
  <g id="Group_146" data-name="Group 146" transform="translate(23.568 45.498)">
    <path id="Path_130" data-name="Path 130" class="cls-1" d="M2.2,0C1.11.315-.242.765-1.4,1.032V1.3a1.712,1.712,0,0,1,1.062.335A1.858,1.858,0,0,1,0,3.054V14.038c0,1.169-.32,1.169-1.43,1.237V15.7H3.557v-.424C2.517,15.207,2.2,15.207,2.2,14.038Z" transform="translate(1.426)"/>
  </g>
  <g id="Group_147" data-name="Group 147" transform="translate(30.68 45.498)">
    <path id="Path_131" data-name="Path 131" class="cls-1" d="M2.2,0C1.11.315-.242.765-1.4,1.032V1.3a1.712,1.712,0,0,1,1.062.335A1.858,1.858,0,0,1,0,3.054V14.038c0,1.169-.32,1.169-1.43,1.237V15.7H3.557v-.424C2.517,15.207,2.2,15.207,2.2,14.038Z" transform="translate(1.426)"/>
  </g>
  <g id="Group_148" data-name="Group 148" transform="translate(49.635 51.091)">
    <path id="Path_132" data-name="Path 132" class="cls-1" d="M3.1,6.129V5.705c-1.26-.069-1.58-.069-1.58-1.237V.133C1.523-1.7,2.45-2.7,3.182-2.7c.643,0,.889.887,1.639.887A1.007,1.007,0,0,0,5.84-2.824c0-.732-.755-1.154-1.471-1.154a3.557,3.557,0,0,0-2.9,2.017V-3.889c-1.014.361-2.2.833-3.237,1.146v.224C-.9-2.136-.629-2.09-.629-1.214V4.468c0,1.169-.323,1.169-1.385,1.237v.424Z" transform="translate(2.014 3.978)"/>
  </g>
  <g id="Group_149" data-name="Group 149" transform="translate(135.497 51.248)">
    <path id="Path_133" data-name="Path 133" class="cls-1" d="M5.354,4.4A3.713,3.713,0,0,1,2.219,6.5c-2.653,0-3.334-2.32-3.334-4.385,0-1.8.528-4.418,2.81-4.418A1.7,1.7,0,0,1,3.553-.742,1.062,1.062,0,0,0,4.544.381.91.91,0,0,0,5.5-.538C5.443-2,3.621-2.853,1.67-2.853a4.93,4.93,0,0,0-5.145,5.2,4.8,4.8,0,0,0,4.919,5A4.5,4.5,0,0,0,5.725,4.508Z" transform="translate(3.475 2.853)"/>
  </g>
  <g id="Group_150" data-name="Group 150" transform="translate(146.365 45.499)">
    <path id="Path_134" data-name="Path 134" class="cls-1" d="M3.022,9.521V9.1c-1.037-.069-1.359-.069-1.359-1.237V1.906A3.139,3.139,0,0,1,4.256.491c1.375,0,2.109,1.126,2.109,2.617V7.859c0,1.169-.323,1.169-1.334,1.237v.424H9.966V9.1c-1.087-.069-1.408-.069-1.408-1.237V3.344c0-3.2-2.284-3.773-3.506-3.773a4.6,4.6,0,0,0-3.389,1.6V-6.179C.6-5.8-.726-5.44-1.791-5.036v.18c.645.135,1.263.338,1.263,1.034V7.859c0,1.169-.323,1.169-1.433,1.237v.424Z" transform="translate(1.961 6.179)"/>
  </g>
  <g id="Group_151" data-name="Group 151" transform="translate(16.158 51.137)">
    <path id="Path_135" data-name="Path 135" class="cls-1" d="M3.046,6.1V5.677C2.007,5.609,1.687,5.609,1.687,4.44v-8.4c-1.11.381-2.5.785-3.565,1.189v.224a2.484,2.484,0,0,1,.889.226c.445.269.445.9.445,1.369V4.44c0,1.169-.32,1.169-1.433,1.237V6.1Z" transform="translate(1.977 3.96)"/>
  </g>
  <g id="Group_152" data-name="Group 152" transform="translate(17.331 46.939)">
    <path id="Path_136" data-name="Path 136" class="cls-1" d="M0,.772A1.274,1.274,0,1,1,1.273,2.045,1.272,1.272,0,0,1,0,.772" transform="translate(0 0.501)"/>
  </g>
  <g id="Group_153" data-name="Group 153" transform="translate(38.045 51.249)">
    <path id="Path_137" data-name="Path 137" class="cls-1" d="M1.482,2.31A7.638,7.638,0,0,0,1.4,3.468c0,2.358.833,4.383,3.453,4.383a4.033,4.033,0,0,0,3.206-2.1l.419.112A4.579,4.579,0,0,1,4.2,8.7a4.885,4.885,0,0,1-5.165-5A4.965,4.965,0,0,1,4.107-1.5C6.381-1.5,8.281-.213,8.421,2.31Zm.14-.676h4.6c0-1.7-1.016-2.581-2.043-2.581-1.166,0-2.134,1-2.556,2.581" transform="translate(0.962 1.499)"/>
  </g>
  <g id="Group_154" data-name="Group 154" transform="translate(70.687 51.496)">
    <path id="Path_138" data-name="Path 138" class="cls-1" d="M2.812,7.137,3.6,5.318-.3-3.039c-.29-.625-.615-1.169-1.527-1.169v-.424H3.338v.424c-.493,0-1.016.008-1.176.44a1.2,1.2,0,0,0,.084.864L4.7,2.78,6.928-2.366a1.722,1.722,0,0,0,.137-1.415c-.292-.457-.966-.427-1.38-.427v-.424H9.743v.424A1.8,1.8,0,0,0,7.9-2.836L3.407,7.541C2.954,8.583,2.388,9.9.98,9.9A.994.994,0,0,1-.039,9,.883.883,0,0,1,.9,8.08c.269.023.516.114.788.135.6.051.925-.617,1.123-1.077" transform="translate(1.825 4.632)"/>
  </g>
  <g id="Group_155" data-name="Group 155" transform="translate(87.998 48.384)">
    <path id="Path_139" data-name="Path 139" class="cls-1" d="M5.083,5.855c-.066.124-.14.254-.216.379q.175.217.335.4A3.469,3.469,0,0,0,7.855,8.015a1.918,1.918,0,0,0,1.652-.879l.277.239A3.781,3.781,0,0,1,7.032,9.262,4.026,4.026,0,0,1,3.952,7.867l-.183-.2A4.705,4.705,0,0,1,.4,9.262c-2.736,0-3.7-1.84-3.7-3.27,0-1.918,1.72-3.13,3.082-4.063-.274-.47-.483-.851-.6-1.087a5.635,5.635,0,0,1-.625-2A2.607,2.607,0,0,1,1.412-3.8c1.784,0,2.742.935,2.64,2.269C3.965-.378,2.743.522,1.623,1.322a49.656,49.656,0,0,0,2.848,4.4c.061-.1.112-.185.15-.249A6.4,6.4,0,0,0,5.632,2.547c0-.7-.442-.9-1.082-.9V1.282H8.292V1.65c-1.248.018-1.814,1.1-2.2,2.109a21.736,21.736,0,0,1-1.006,2.1M3.317,7.146A40.046,40.046,0,0,1,.123,2.511,4.316,4.316,0,0,0-1.358,5.619,2.438,2.438,0,0,0,1.033,8.2,3.426,3.426,0,0,0,3.317,7.146m-2-6.367A3.488,3.488,0,0,0,2.73-1.633c.1-1.23-.546-1.664-1.275-1.664A1.342,1.342,0,0,0,.24-2.037,4.117,4.117,0,0,0,.865-.052c.109.216.259.5.447.831" transform="translate(3.299 3.8)"/>
  </g>
</svg>
