<svg xmlns="http://www.w3.org/2000/svg" width="41.107" height="41.105" viewBox="0 0 41.107 41.105">
  <defs>
    <style>
      .cls-1, .cls-2 {
        fill: #fff;
      }

      .cls-2 {
        fill-rule: evenodd;
      }
    </style>
  </defs>
  <g id="Group_497" data-name="Group 497" transform="translate(-1412.671 -9561.762)">
    <path id="Path_75" data-name="Path 75" class="cls-1" d="M1592.225,488.4a20.555,20.555,0,1,1-14.533,6.02,20.454,20.454,0,0,1,14.533-6.02m13.406,7.158a18.972,18.972,0,1,0,5.542,13.395,18.932,18.932,0,0,0-5.542-13.395" transform="translate(-159 9073.358)"/>
    <path id="Path_76" data-name="Path 76" class="cls-2" d="M1586.967,508.956a5.263,5.263,0,1,1,5.258,5.269,5.27,5.27,0,0,1-5.258-5.269m10.7-10.3H1586.8a4.884,4.884,0,0,0-4.872,4.871V514.4a4.892,4.892,0,0,0,4.872,4.871h10.868a4.884,4.884,0,0,0,4.871-4.871V503.528a4.876,4.876,0,0,0-4.871-4.871m-10.868,1.218h10.868a3.657,3.657,0,0,1,3.653,3.653V514.4a3.658,3.658,0,0,1-3.653,3.653H1586.8a3.658,3.658,0,0,1-3.654-3.653V503.528a3.657,3.657,0,0,1,3.654-3.653m11.949,1.536a1.069,1.069,0,1,0,1.07,1.069,1.068,1.068,0,0,0-1.07-1.069m.125,7.545a6.646,6.646,0,1,0-6.646,6.646,6.646,6.646,0,0,0,6.646-6.646" transform="translate(-159 9073.358)"/>
  </g>
</svg>
