<svg xmlns="http://www.w3.org/2000/svg" width="41.107" height="41.105" viewBox="0 0 41.107 41.105">
  <defs>
    <style>
      .cls-1, .cls-2 {
        fill: #fff;
      }

      .cls-2 {
        fill-rule: evenodd;
      }
    </style>
  </defs>
  <g id="Group_500" data-name="Group 500" transform="translate(-1569.616 -9561.762)">
    <path id="Path_71" data-name="Path 71" class="cls-1" d="M1749.17,488.4a20.555,20.555,0,1,1-14.533,6.02,20.476,20.476,0,0,1,14.533-6.02m13.395,7.158a18.932,18.932,0,1,0,5.553,13.395,18.841,18.841,0,0,0-5.553-13.395" transform="translate(-159 9073.358)"/>
    <path id="Path_72" data-name="Path 72" class="cls-2" d="M1739.894,509.15v9.081h4.325v-12.37h-4.325Zm18.449.512c-.285-2.345-1.354-3.8-4.519-3.8-1.855,0-3.107.683-3.63,1.673h-.057v-1.673h-3.449v12.37h3.608V512.1c0-1.617.319-3.176,2.3-3.176s2.138,1.844,2.138,3.289v6.02h3.711v-6.794a14.6,14.6,0,0,0-.1-1.775m-16.286-9.981a2.163,2.163,0,1,0,2.162,2.163,2.162,2.162,0,0,0-2.162-2.163" transform="translate(-159 9073.358)"/>
  </g>
</svg>
