<svg xmlns="http://www.w3.org/2000/svg" width="41.106" height="41.117" viewBox="0 0 41.106 41.117">
  <defs>
    <style>
      .cls-1, .cls-2 {
        fill: #fff;
      }

      .cls-2 {
        fill-rule: evenodd;
      }
    </style>
  </defs>
  <g id="Group_499" data-name="Group 499" transform="translate(-1517.302 -9561.762)">
    <path id="Path_73" data-name="Path 73" class="cls-1" d="M1696.855,488.4a20.554,20.554,0,1,1-14.533,6.02,20.526,20.526,0,0,1,14.533-6.02m13.4,7.158a18.943,18.943,0,1,0,5.554,13.406,18.875,18.875,0,0,0-5.554-13.406" transform="translate(-159 9073.358)"/>
    <path id="Path_74" data-name="Path 74" class="cls-2" d="M1707.348,502.56a9.177,9.177,0,0,1-2.47.671,4.242,4.242,0,0,0,1.9-2.355,8.75,8.75,0,0,1-2.742,1.035,4.324,4.324,0,0,0-7.455,2.891,4.436,4.436,0,0,0,.125.968,12.225,12.225,0,0,1-8.877-4.428,4.187,4.187,0,0,0,1.32,5.657,4.173,4.173,0,0,1-1.945-.524v.057a4.011,4.011,0,0,0,.3,1.525,4.293,4.293,0,0,0,3.164,2.618,4.259,4.259,0,0,1-1.138.159,3.805,3.805,0,0,1-.808-.091,4.341,4.341,0,0,0,4.017,2.959,8.708,8.708,0,0,1-5.338,1.809c-.353,0-.683-.023-1.035-.057a12.425,12.425,0,0,0,6.6,1.9,11.977,11.977,0,0,0,11.96-9.492,11.653,11.653,0,0,0,.285-2.56v-.546a8.967,8.967,0,0,0,2.14-2.2" transform="translate(-159 9073.358)"/>
  </g>
</svg>
