<svg xmlns="http://www.w3.org/2000/svg" width="41.106" height="41.117" viewBox="0 0 41.106 41.117">
  <defs>
    <style>
      .cls-1, .cls-2 {
        fill: #fff;
      }

      .cls-2 {
        fill-rule: evenodd;
      }
    </style>
  </defs>
  <g id="Group_501" data-name="Group 501" transform="translate(-1621.931 -9561.762)">
    <path id="Path_69" data-name="Path 69" class="cls-1" d="M1801.484,488.4a20.554,20.554,0,1,1-14.533,6.02,20.526,20.526,0,0,1,14.533-6.02m13.4,7.158a18.948,18.948,0,1,0,5.552,13.406,18.881,18.881,0,0,0-5.552-13.406" transform="translate(-159 9073.358)"/>
    <path id="Path_70" data-name="Path 70" class="cls-2" d="M1811.773,504.586a4.927,4.927,0,0,0-.843-2.173,3,3,0,0,0-2.093-.934c-2.937-.216-7.341-.216-7.341-.216h-.023s-4.392,0-7.33.216a2.991,2.991,0,0,0-2.1.934,4.933,4.933,0,0,0-.842,2.173,33.409,33.409,0,0,0-.217,3.528v1.673a32.838,32.838,0,0,0,.217,3.528,5.009,5.009,0,0,0,.842,2.185,3.438,3.438,0,0,0,2.322.933c1.673.171,7.135.228,7.135.228s4.4-.023,7.341-.228a2.953,2.953,0,0,0,2.093-.933,5,5,0,0,0,.843-2.185,34.889,34.889,0,0,0,.2-3.528v-1.673c0-1.752-.2-3.528-.2-3.528m-6.783,4.143-5.679,3.061v-6.145l2.572,1.4Z" transform="translate(-159 9073.358)"/>
  </g>
</svg>
