<svg id="Group_482" data-name="Group 482" xmlns="http://www.w3.org/2000/svg" width="260.001" height="112.036" viewBox="0 0 260.001 112.036">
  <defs>
    <style>
      .cls-1 {
        fill: #319d39;
      }

      .cls-2 {
        fill: #e40023;
      }

      .cls-3, .cls-4 {
        fill: #003b7d;
      }

      .cls-4 {
        stroke: rgba(0,0,0,0);
        stroke-miterlimit: 10;
      }

      .cls-5 {
        fill: none;
      }
    </style>
  </defs>
  <path id="Path_1302" data-name="Path 1302" class="cls-1" d="M121.5,90.351c63.271-6.568,106.628-.754,138.819,8.238.229.021-60.316-8.932-135.985.609C52.2,108.031,1.388,130.859,1.528,130.368,22.4,115.65,58.326,99.225,121.5,90.351" transform="translate(-0.32 -18.341)"/>
  <path id="Path_1303" data-name="Path 1303" class="cls-2" d="M114.945,6.3a6.3,6.3,0,1,1,6.307,6.3,6.306,6.306,0,0,1-6.307-6.3" transform="translate(-24.084)"/>
  <path id="Path_1304" data-name="Path 1304" class="cls-3" d="M288.18,61.677c-3.086-.244-4.941-4.819-5.039-13.823-.1-9.267,2.118-14.18,5.055-14.18,2.277,0,3.782,2.208,5.224,4.676L293.4,56.74c-1.2,2.462-2.6,4.861-5.173,4.937Zm5.24,3.154v2.433h5.663V14.213H293.42V30.424L293.4,30.4c-1.434-1.594-3.382-3.225-6.088-3.184-5.706.1-9.894,7.04-9.943,20.327-.048,12.5,3.492,20.527,9.943,20.582A7.735,7.735,0,0,0,293.4,64.8Z" transform="translate(-58.115 -2.978)"/>
  <path id="Exclusion_6" data-name="Exclusion 6" class="cls-4" d="M10.012,53.913H9.944a6.959,6.959,0,0,1-4.282-1.481,11.106,11.106,0,0,1-3.127-4.143C.853,44.72-.024,39.547,0,33.331.024,27,1.009,21.775,2.851,18.222c1.743-3.363,4.2-5.167,7.093-5.219h.1c2.8,0,4.759,1.818,5.99,3.185l.023.023V0h5.663V53.051H16.055V50.618l-.023-.028A7.789,7.789,0,0,1,10.012,53.913ZM10.83,19.46a2.912,2.912,0,0,0-2.095.964,10.1,10.1,0,0,0-2.194,4.719,36.118,36.118,0,0,0-.766,8.5,31.512,31.512,0,0,0,1.4,10.2c.856,2.282,2.08,3.5,3.641,3.627h.044c2.583-.077,3.973-2.481,5.174-4.937l.022-18.39a17.1,17.1,0,0,0-2.3-3.265A4.042,4.042,0,0,0,10.83,19.46Z" transform="translate(219.251 11.235)"/>
  <path id="Path_1307" data-name="Path 1307" class="cls-3" d="M263.944,70.773V43.661c-.114-4.805-.649-7.423-1.814-9.629a6,6,0,0,0-5.423-3.352,7.68,7.68,0,0,0-4.45,1.732,13.669,13.669,0,0,0-3.157,3.068l-.023.025V31.569h-5.659l.019,39.2h5.64l.057-27.577a18.3,18.3,0,0,1,2.722-3.689c1.054-.9,2.074-1.807,3.241-1.807,1.445,0,1.941.86,2.4,1.851a18.075,18.075,0,0,1,.717,6.188l.028,25.034Z" transform="translate(-51.002 -6.429)"/>
  <path id="Path_1308" data-name="Path 1308" class="cls-3" d="M201.814,67.329V61.3H187.165V14.281h-5.678l.025,53.047Z" transform="translate(-38.026 -2.992)"/>
  <path id="Path_1309" data-name="Path 1309" class="cls-3" d="M223.813,62.386c-1.005,1.769-2.529,3.084-3.782,3.107-2.221.058-2.947-2.364-2.865-6.175.113-4.9,2.926-7.5,6.648-8.709Zm6.445,8.337V69.411c-.649-.645-.751-2.107-.751-5.224v-18.4c0-11.3-2.667-15.062-8.371-15.09-5.979-.028-8.414,5.756-8.927,11.588l5.738.778c.319-3.217,1.145-6.66,3-6.61,2.077.051,2.754,2.614,2.835,7.868v.81c-9.43,2.279-12.4,7.775-12.433,15.363-.024,7.043,2.752,11.079,7.524,11.079a6.987,6.987,0,0,0,5.315-2.7V69a5.319,5.319,0,0,0,.538,1.718Z" transform="translate(-44.282 -6.431)"/>
  <path id="Exclusion_5" data-name="Exclusion 5" class="cls-4" d="M7.524,40.875A6.4,6.4,0,0,1,2.813,39.01C.959,37.149-.014,33.964,0,29.8c.019-4.079.9-7.243,2.693-9.672,2.018-2.733,5.2-4.594,9.739-5.69v-.811C12.347,8.011,11.553,5.8,9.6,5.756H9.559c-2,0-2.714,4.142-2.959,6.611L.862,11.589a18,18,0,0,1,2.4-7.976A7.377,7.377,0,0,1,9.744,0h.044c3,.015,5.008,1.069,6.325,3.317C17.51,5.7,18.16,9.442,18.16,15.09v18.4c0,3.158.1,4.582.751,5.225v1.311H13.378a5.3,5.3,0,0,1-.538-1.717V38.18A6.986,6.986,0,0,1,7.524,40.875Zm4.942-20.962a9.976,9.976,0,0,0-4.677,2.97,9.016,9.016,0,0,0-1.971,5.738c-.06,2.84.333,4.652,1.2,5.539a2.135,2.135,0,0,0,1.586.638h.078c1.219-.022,2.739-1.27,3.782-3.107V19.914Z" transform="translate(167.064 24.263)"/>
  <path id="Path_1311" data-name="Path 1311" class="cls-3" d="M161.825,62.386c-1,1.769-2.532,3.084-3.784,3.107-2.211.058-2.948-2.364-2.862-6.175.112-4.9,2.918-7.5,6.646-8.709Zm6.443,8.337V69.411c-.646-.645-.755-2.107-.755-5.224v-18.4c0-11.3-2.672-15.062-8.37-15.09-5.981-.028-8.411,5.756-8.919,11.588l5.739.778c.326-3.217,1.143-6.66,2.993-6.61,2.088.051,2.76,2.614,2.838,7.868v.81c-9.427,2.279-12.4,7.775-12.429,15.363-.028,7.043,2.745,11.079,7.522,11.079a7,7,0,0,0,5.313-2.7V69a5.323,5.323,0,0,0,.534,1.718Z" transform="translate(-31.296 -6.431)"/>
  <path id="Exclusion_4" data-name="Exclusion 4" class="cls-4" d="M7.522,40.875a6.4,6.4,0,0,1-4.715-1.867C.954,37.148-.016,33.963,0,29.8c.013-4.077.892-7.24,2.688-9.672,2.018-2.733,5.2-4.594,9.741-5.69v-.811C12.346,8.01,11.55,5.8,9.591,5.756H9.552c-.829,0-1.515.709-2.039,2.107a18.608,18.608,0,0,0-.915,4.5L.86,11.589a17.992,17.992,0,0,1,2.4-7.976A7.372,7.372,0,0,1,9.734,0h.044c3,.015,5.005,1.069,6.322,3.317C17.5,5.7,18.149,9.443,18.149,15.09v18.4c0,3.091.109,4.579.755,5.225v1.311H13.369a5.33,5.33,0,0,1-.534-1.717V38.18A7,7,0,0,1,7.522,40.875Zm4.938-20.962a9.967,9.967,0,0,0-4.678,2.97,9.012,9.012,0,0,0-1.967,5.738c-.065,2.833.328,4.645,1.2,5.538A2.129,2.129,0,0,0,8.6,34.8h.078c1.209-.022,2.764-1.3,3.784-3.107Z" transform="translate(118.069 24.263)"/>
  <path id="Path_1313" data-name="Path 1313" class="cls-3" d="M76.913,41.717a10.863,10.863,0,0,1,2.4-3.476,3.692,3.692,0,0,1,2.6-1.072c1.316-.041,2.585.925,3.518,3.186.961,2.463,1.364,5.857,1.364,10.83,0,5.832-.615,9.136-1.443,11.1-.883,1.632-1.9,2.786-3.466,2.786a4.3,4.3,0,0,1-2.893-1.438,11.647,11.647,0,0,1-2.078-3.112ZM71.229,87.252h5.684V68.581l.04.021a7.991,7.991,0,0,0,1.868,1.739A6.417,6.417,0,0,0,82.5,71.581c3.223.194,6.036-2.159,7.537-5.2,1.605-3.3,2.569-8.546,2.569-15.317,0-7-1.021-11.988-2.56-15.108-1.871-3.794-4.524-5.295-7.162-5.295a6.559,6.559,0,0,0-3.873,1.183,10.779,10.779,0,0,0-2.125,1.99h-.014l.014-2.3H71.229Z" transform="translate(-14.924 -6.424)"/>
  <path id="Exclusion_3" data-name="Exclusion 3" class="cls-4" d="M5.684,56.592H0V.868H5.657l-.014,2.3h.014l.008-.009a10.784,10.784,0,0,1,2.117-1.98A6.524,6.524,0,0,1,11.655,0a6.682,6.682,0,0,1,3.868,1.224,10.437,10.437,0,0,1,3.293,4.07c1.674,3.394,2.56,8.618,2.56,15.107a53.5,53.5,0,0,1-.683,8.961,24,24,0,0,1-1.886,6.356,10.488,10.488,0,0,1-2.974,3.7,6.915,6.915,0,0,1-4.191,1.51c-.123,0-.249,0-.372-.011a6.438,6.438,0,0,1-3.678-1.238A7.884,7.884,0,0,1,5.764,37.99l-.04-.047-.04-.022V56.591ZM10.762,6.508h-.079a3.7,3.7,0,0,0-2.6,1.072,10.771,10.771,0,0,0-2.4,3.475V29.866a9.3,9.3,0,0,0,1.574,2.491c.16.191.324.388.5.62a4.258,4.258,0,0,0,2.894,1.437,2.912,2.912,0,0,0,1.989-.781,7.1,7.1,0,0,0,1.477-2.006c.97-2.3,1.442-5.936,1.442-11.1,0-5.07-.42-8.41-1.363-10.83C13.114,7.061,11.731,6.508,10.762,6.508Z" transform="translate(56.305 24.236)"/>
  <path id="Path_1315" data-name="Path 1315" class="cls-3" d="M51.607,62.386c-1,1.769-2.526,3.084-3.783,3.107-2.212.058-2.942-2.364-2.856-6.175.105-4.9,2.913-7.5,6.639-8.709Zm6.449,8.337V69.411c-.644-.645-.754-2.107-.754-5.224v-18.4c0-11.3-2.676-15.062-8.368-15.09-5.984-.028-8.417,5.756-8.925,11.588l5.734.778c.316-3.217,1.142-6.66,2.988-6.61,2.092.051,2.767,2.614,2.847,7.868v.81C42.146,47.406,39.169,52.9,39.144,60.49c-.026,7.043,2.749,11.079,7.526,11.079a6.975,6.975,0,0,0,5.306-2.7V69a5.606,5.606,0,0,0,.538,1.718Z" transform="translate(-8.202 -6.431)"/>
  <path id="Exclusion_2" data-name="Exclusion 2" class="cls-4" d="M7.527,40.875A6.407,6.407,0,0,1,2.81,39.008C.956,37.147-.015,33.962,0,29.8c.014-4.077.893-7.24,2.69-9.672,2.019-2.733,5.207-4.594,9.746-5.69v-.811C12.349,8.01,11.551,5.8,9.588,5.756H9.549c-2,0-2.706,4.142-2.949,6.611L.866,11.589a17.978,17.978,0,0,1,2.4-7.976A7.379,7.379,0,0,1,9.747,0h.044c2.994.015,5,1.069,6.319,3.317,1.4,2.386,2.049,6.127,2.049,11.774v18.4c0,3.091.109,4.578.754,5.225v1.311H13.371a5.6,5.6,0,0,1-.538-1.717V38.18A6.969,6.969,0,0,1,7.527,40.875Zm4.937-20.962a9.96,9.96,0,0,0-4.677,2.97,9,9,0,0,0-1.962,5.738c-.064,2.837.328,4.649,1.2,5.54A2.126,2.126,0,0,0,8.6,34.8h.078c1.222-.022,2.743-1.27,3.783-3.107V19.914Z" transform="translate(30.942 24.263)"/>
  <path id="Path_1317" data-name="Path 1317" class="cls-3" d="M128.252,29.646h-3.071v6.022h3.071V58.62c0,9.527,3.427,10.8,7.1,11.209,2.124.236,4.522-1.616,5.819-2.72l-1.455-6.022c-1.07,1.367-1.779,2.439-3.2,2.439-2.009,0-2.625-2.457-2.625-9.126V35.668h5.728V29.646H133.89V21.2h-5.638Z" transform="translate(-26.228 -4.441)"/>
  <path id="Path_1318" data-name="Path 1318" class="cls-3" d="M117.541,21.735c-4.374-.521-6.944,5.291-11.193,22.189-4.109,16.232-6.522,27.688-7.165,36.91-.117,1.775.451,3.614,1.083,3.489,1.42-.273,2.71-5.35,7.014-14.218,9.4-19.5,9.366-16.919,9.43-20.309.009-.967-.36-1.541-.745-1.465-.665-.026-1.086.5-8.735,14.674a264.231,264.231,0,0,1,10.312-41.271" transform="translate(-20.778 -4.547)"/>
  <path id="Path_1319" data-name="Path 1319" class="cls-3" d="M22.164,50.99c-1.188,4.556-3.025,10.931-7.551,10.931-4.6,0-9.023-4.937-9.023-21.186,0-16.206,4.529-21.365,8.891-21.427,4.021-.051,5.947,4.129,7.116,9.8l5.408-1.251c-1.832-10.071-6.542-14.407-12.331-14.441-4.1-.028-7.77,2.378-10.275,6.622C1.8,24.543,0,31.855,0,40.526c0,9.534,1.763,16.6,4.559,21.2C6.989,65.7,10.825,67.9,14.6,67.9c5.918,0,11.177-6.382,12.971-15.338Z" transform="translate(0 -2.811)"/>
  <rect id="Rectangle_378" data-name="Rectangle 378" class="cls-5" width="260" height="112.036"/>
</svg>
