<svg id="Group_484" data-name="Group 484" xmlns="http://www.w3.org/2000/svg" xmlns:xlink="http://www.w3.org/1999/xlink" width="141.313" height="111.638" viewBox="0 0 141.313 111.638">
  <defs>
    <style>
      .cls-1 {
        fill: none;
      }

      .cls-2 {
        clip-path: url(#clip-path);
      }

      .cls-3 {
        fill: #e50019;
      }
    </style>
    <clipPath id="clip-path">
      <rect id="Rectangle_379" data-name="Rectangle 379" class="cls-1" width="141.313" height="111.637"/>
    </clipPath>
  </defs>
  <g id="Group_483" data-name="Group 483" class="cls-2">
    <path id="Path_1324" data-name="Path 1324" class="cls-3" d="M35.4,55.778a6.8,6.8,0,0,0,6.63,6.935H99.294a6.946,6.946,0,0,0,0-13.878H42.025a6.81,6.81,0,0,0-6.63,6.943M119.371,0V21.142H87.339v.045a14.454,14.454,0,0,0-11.866,6.266,18.238,18.238,0,0,0-3.305,10.555h-.036v5H99.294v.023c.151,0,.294.046.44.046h19.655V68.4H100.449a9.49,9.49,0,0,1-1.155.123v.022H72.132v4.924h.036a18.242,18.242,0,0,0,3.305,10.555,14.415,14.415,0,0,0,11.866,6.266v.045h38.775v-.045a14.419,14.419,0,0,0,11.866-6.28,18.338,18.338,0,0,0,3.3-10.541h.038V0ZM15.21,90.292v.045h38.78v-.045a14.41,14.41,0,0,0,11.858-6.266,18.3,18.3,0,0,0,3.3-10.555h.044V68.548H42.025v-.022a9.476,9.476,0,0,1-1.158-.123H21.931V43.076H41.588c.14,0,.284-.046.424-.046v-.023H69.192v-5h-.044a18.292,18.292,0,0,0-3.3-10.555,14.4,14.4,0,0,0-11.858-6.266v-.045H21.951V0H0V73.471H.044A18.306,18.306,0,0,0,3.352,84.012a14.4,14.4,0,0,0,11.858,6.28m-9.317,7.1-.421,2.8a3.378,3.378,0,0,1,1.9-.435H9.861v9.774a3.612,3.612,0,0,1-.582,2.106h6.569a3.61,3.61,0,0,1-.6-2.106V99.757h2.513a3.361,3.361,0,0,1,1.9.435l-.423-2.8Zm30.618,0H29.92a3.686,3.686,0,0,1,.605,2.128V103.2h-4.15V99.522a3.768,3.768,0,0,1,.6-2.128H20.394a3.788,3.788,0,0,1,.588,2.128v10.009a3.9,3.9,0,0,1-.588,2.106h6.578a3.729,3.729,0,0,1-.6-2.106v-3.978h4.15v3.978a3.648,3.648,0,0,1-.605,2.106h6.592a3.709,3.709,0,0,1-.6-2.106V99.522a3.747,3.747,0,0,1,.6-2.128m8.008,0H37.931a3.707,3.707,0,0,1,.6,2.128v10.009a4.075,4.075,0,0,1-.6,2.106H44.52a3.67,3.67,0,0,1-.6-2.106V99.522a3.708,3.708,0,0,1,.6-2.128m85.8,11.9a2.333,2.333,0,0,1-1.419-.316,1.7,1.7,0,0,1-.454-1.392V101.57a2.643,2.643,0,0,1,.259-1.482c.167-.226.61-.33,1.347-.33h2.956a4.744,4.744,0,0,1,2.662.587l-.507-2.951h-8.47a3.353,3.353,0,0,0-2.741,1.121,4.5,4.5,0,0,0-.913,2.965v6.085a4.492,4.492,0,0,0,.869,2.915,3.4,3.4,0,0,0,2.785,1.157h8.723l.427-2.794a7.009,7.009,0,0,1-2.714.452Zm-30.767-11.9H87.826a3.725,3.725,0,0,1,.591,2.128v10.009a4.089,4.089,0,0,1-.275,1.506,3.425,3.425,0,0,1-.272.6H99.552q3.646,0,3.644-4.073V101.48c0-2.716-1.213-4.086-3.644-4.086m-1.763,10.238a2.4,2.4,0,0,1-.225,1.257c-.16.271-.561.407-1.177.407H93.821V99.757h2.566c.616,0,1.017.137,1.177.407a2.406,2.406,0,0,1,.225,1.257Zm20.452-8.11v8.11a2.339,2.339,0,0,1-.214,1.257c-.157.271-.561.407-1.18.407h-4.383c-.616,0-1.009-.136-1.19-.407a2.442,2.442,0,0,1-.212-1.257v-8.11a3.764,3.764,0,0,1,.588-2.128h-6.586a3.73,3.73,0,0,1,.6,2.128v8.043a4.415,4.415,0,0,0,.861,2.915,3.384,3.384,0,0,0,2.78,1.157h7.665a3.521,3.521,0,0,0,2.77-1.157,4.3,4.3,0,0,0,.85-2.915V99.522a3.79,3.79,0,0,1,.594-2.128h-3.54a3.6,3.6,0,0,1,.6,2.128M52.508,109.3v-3.78h4.761a2.778,2.778,0,0,1,1.631.385V102.9a5.443,5.443,0,0,1-2.038.316H52.508V99.757h4.444a7.473,7.473,0,0,1,2.505.34l-.421-2.7H46.519a3.687,3.687,0,0,1,.6,2.128v10.009a4.05,4.05,0,0,1-.6,2.106H59.333l.47-2.83a7.171,7.171,0,0,1-2.024.488Zm21.513-9.774v9.24L68.538,97.394H60.813a3.628,3.628,0,0,1,.605,2.128v10.009a3.591,3.591,0,0,1-.605,2.106h3.539a3.694,3.694,0,0,1-.6-2.106v-9.457l5.723,11.564h6.889V99.522a3.628,3.628,0,0,1,.6-2.128H73.424a3.768,3.768,0,0,1,.6,2.128"/>
  </g>
</svg>
